<mxfile host="Electron" modified="2024-05-23T12:39:56.925Z" agent="Mozilla/5.0 (Windows NT 10.0; Win64; x64) AppleWebKit/537.36 (KHTML, like Gecko) draw.io/24.4.6 Chrome/124.0.6367.207 Electron/30.0.6 Safari/537.36" etag="m6WNZ-a-WgY3fLu4pNwp" version="24.4.6" type="device">
  <diagram name="Page-1" id="XWt7EI8PrPKg95o7gHPE">
    <mxGraphModel dx="850" dy="819" grid="1" gridSize="10" guides="1" tooltips="1" connect="1" arrows="1" fold="1" page="1" pageScale="1" pageWidth="850" pageHeight="1100" math="0" shadow="0">
      <root>
        <mxCell id="0" />
        <mxCell id="1" parent="0" />
        <mxCell id="dxeFSob7ACS17ZFabYRL-79" value="Dashboard" style="shape=umlLifeline;perimeter=lifelinePerimeter;whiteSpace=wrap;container=1;dropTarget=0;collapsible=0;recursiveResize=0;outlineConnect=0;portConstraint=eastwest;newEdgeStyle={&quot;edgeStyle&quot;:&quot;elbowEdgeStyle&quot;,&quot;elbow&quot;:&quot;vertical&quot;,&quot;curved&quot;:0,&quot;rounded&quot;:0};size=65;" vertex="1" parent="1">
          <mxGeometry x="90" y="20" width="150" height="620" as="geometry" />
        </mxCell>
        <mxCell id="dxeFSob7ACS17ZFabYRL-80" value="CobotArm" style="shape=umlLifeline;perimeter=lifelinePerimeter;whiteSpace=wrap;container=1;dropTarget=0;collapsible=0;recursiveResize=0;outlineConnect=0;portConstraint=eastwest;newEdgeStyle={&quot;edgeStyle&quot;:&quot;elbowEdgeStyle&quot;,&quot;elbow&quot;:&quot;vertical&quot;,&quot;curved&quot;:0,&quot;rounded&quot;:0};size=65;" vertex="1" parent="1">
          <mxGeometry x="328" y="20" width="150" height="620" as="geometry" />
        </mxCell>
        <mxCell id="dxeFSob7ACS17ZFabYRL-81" value="Loadcell" style="shape=umlLifeline;perimeter=lifelinePerimeter;whiteSpace=wrap;container=1;dropTarget=0;collapsible=0;recursiveResize=0;outlineConnect=0;portConstraint=eastwest;newEdgeStyle={&quot;edgeStyle&quot;:&quot;elbowEdgeStyle&quot;,&quot;elbow&quot;:&quot;vertical&quot;,&quot;curved&quot;:0,&quot;rounded&quot;:0};size=65;" vertex="1" parent="1">
          <mxGeometry x="528" y="20" width="150" height="620" as="geometry" />
        </mxCell>
        <mxCell id="dxeFSob7ACS17ZFabYRL-82" value="VisionSoftware" style="shape=umlLifeline;perimeter=lifelinePerimeter;whiteSpace=wrap;container=1;dropTarget=0;collapsible=0;recursiveResize=0;outlineConnect=0;portConstraint=eastwest;newEdgeStyle={&quot;edgeStyle&quot;:&quot;elbowEdgeStyle&quot;,&quot;elbow&quot;:&quot;vertical&quot;,&quot;curved&quot;:0,&quot;rounded&quot;:0};size=65;" vertex="1" parent="1">
          <mxGeometry x="728" y="20" width="150" height="620" as="geometry" />
        </mxCell>
        <mxCell id="dxeFSob7ACS17ZFabYRL-83" value="loop" style="shape=umlFrame;dashed=1;pointerEvents=0;dropTarget=0;strokeColor=#B3B3B3;height=20;width=40" vertex="1" parent="1">
          <mxGeometry x="393" y="320" width="420" height="192" as="geometry" />
        </mxCell>
        <mxCell id="dxeFSob7ACS17ZFabYRL-84" value="[Scan rail]" style="text;strokeColor=none;fillColor=none;align=center;verticalAlign=middle;whiteSpace=wrap;" vertex="1" parent="dxeFSob7ACS17ZFabYRL-83">
          <mxGeometry x="40" width="380" height="20" as="geometry" />
        </mxCell>
        <mxCell id="dxeFSob7ACS17ZFabYRL-85" value="Start moving&#xa;RTS/cobot/start" style="verticalAlign=bottom;endArrow=block;edgeStyle=elbowEdgeStyle;elbow=vertical;curved=0;rounded=0;" edge="1" parent="1" source="dxeFSob7ACS17ZFabYRL-79" target="dxeFSob7ACS17ZFabYRL-80">
          <mxGeometry x="-0.0019" relative="1" as="geometry">
            <Array as="points">
              <mxPoint x="294" y="148" />
            </Array>
            <mxPoint as="offset" />
          </mxGeometry>
        </mxCell>
        <mxCell id="dxeFSob7ACS17ZFabYRL-86" value="Measure weight&#xa;RTS/loadcell/measure" style="verticalAlign=bottom;endArrow=block;edgeStyle=elbowEdgeStyle;elbow=vertical;curved=0;rounded=0;" edge="1" parent="1" source="dxeFSob7ACS17ZFabYRL-80" target="dxeFSob7ACS17ZFabYRL-81">
          <mxGeometry relative="1" as="geometry">
            <Array as="points">
              <mxPoint x="513" y="221" />
            </Array>
          </mxGeometry>
        </mxCell>
        <mxCell id="dxeFSob7ACS17ZFabYRL-87" value="Send weight value&#xa;RTS/loadcell/result" style="verticalAlign=bottom;endArrow=block;edgeStyle=elbowEdgeStyle;elbow=vertical;curved=0;rounded=0;" edge="1" parent="1" source="dxeFSob7ACS17ZFabYRL-81" target="dxeFSob7ACS17ZFabYRL-79">
          <mxGeometry relative="1" as="geometry">
            <Array as="points">
              <mxPoint x="394" y="294" />
            </Array>
          </mxGeometry>
        </mxCell>
        <mxCell id="dxeFSob7ACS17ZFabYRL-88" value="Take picture&#xa;RTS/vision/picture" style="verticalAlign=bottom;endArrow=block;edgeStyle=elbowEdgeStyle;elbow=vertical;curved=0;rounded=0;" edge="1" parent="1">
          <mxGeometry x="0.0011" relative="1" as="geometry">
            <Array as="points">
              <mxPoint x="613" y="391" />
            </Array>
            <mxPoint x="402.81034482758605" y="391" as="sourcePoint" />
            <mxPoint x="802.5" y="391" as="targetPoint" />
            <mxPoint as="offset" />
          </mxGeometry>
        </mxCell>
        <mxCell id="dxeFSob7ACS17ZFabYRL-89" value="Move to next position&#xa;RTS/cobot/move" style="verticalAlign=bottom;endArrow=block;edgeStyle=elbowEdgeStyle;elbow=vertical;curved=0;rounded=0;" edge="1" parent="1">
          <mxGeometry relative="1" as="geometry">
            <Array as="points">
              <mxPoint x="613" y="464" />
            </Array>
            <mxPoint x="802.5" y="464" as="sourcePoint" />
            <mxPoint x="402.81034482758605" y="464" as="targetPoint" />
          </mxGeometry>
        </mxCell>
        <mxCell id="dxeFSob7ACS17ZFabYRL-92" value="Send scan data&#xa;RTS/vision/result" style="verticalAlign=bottom;endArrow=block;edgeStyle=elbowEdgeStyle;elbow=vertical;curved=0;rounded=0;" edge="1" parent="1">
          <mxGeometry relative="1" as="geometry">
            <Array as="points">
              <mxPoint x="494" y="560" />
            </Array>
            <mxPoint x="802.5" y="559.9999999999998" as="sourcePoint" />
            <mxPoint x="164.81034482758616" y="559.9999999999998" as="targetPoint" />
          </mxGeometry>
        </mxCell>
      </root>
    </mxGraphModel>
  </diagram>
</mxfile>
